<svg version="1.0" xmlns="http://www.w3.org/2000/svg" width="96.000000pt" height="96.000000pt" viewBox="0 0 96.000000 96.000000" preserveAspectRatio="xMidYMid meet"><g transform="translate(0.000000,96.000000) scale(0.100000,-0.100000)" fill="#000000" stroke="none"><path d="M750 873 c-195 -33 -382 -140 -500 -286 -101 -124 -170 -299 -170-428 0 -74 9 -79 134 -79 110 0 118 6 131 93 3 27 13 67 21 89 l14 40 -50 52-50 53 38 59 c38 58 101 122 174 178 l37 28 56 -47 56 -48 77 18 c42 9 91 20107 24 l30 7 3 113 c2 75 -1 118 -9 127 -11 13 -46 16 -99 7z"/></g></svg>
