<svg xmlns="http://www.w3.org/2000/svg"  viewBox="0 0 48 48" width="96px" height="96px"><path d="M 4.9980469 10.001953 C 3.8940469 10.001953 2.9980469 10.894953 2.9980469 12.001953 L 2.9980469 46.001953 C 2.9980469 46.378634 3.1083799 46.724873 3.2890625 47.025391 C 1.9788334 47.080322 0.001953125 47.259846 0.001953125 47.494141 C 0.001953125 47.774141 3.8900469 48.001953 4.9980469 48.001953 L 4.9980469 48 L 30.998047 48 C 31.019456 48 31.041059 47.996457 31.0625 47.996094 C 31.086978 47.996802 31.107945 48.001953 31.132812 48.001953 C 31.758813 48.001953 47 47.774141 47 47.494141 C 47 47.271711 37.66546 47.108747 33.808594 47.050781 C 34.25578 46.747691 34.663379 46.391309 34.998047 46 L 47.787109 33.400391 C 47.914109 33.253391 47.998047 33.080516 47.998047 32.853516 C 47.998047 32.387516 47.614578 32 47.142578 32 L 30.998047 32 L 30.998047 41 L 27.994141 38 L 24.998047 41 L 24.998047 32 L 18.669922 32 C 17.579922 32 16.454 32.639797 15.75 33.466797 L 5.9980469 45 L 9.9980469 20 L 38.285156 20 L 37.318359 23 L 40.330078 23 L 41.929688 18.1875 C 41.965688 18.0815 41.998047 17.960516 41.998047 17.853516 C 41.998047 17.387516 41.612625 17.001953 41.140625 17.001953 L 34.498047 17.001953 C 34.222047 17.001953 33.998047 16.774141 33.998047 16.494141 C 33.998047 16.228141 34.222047 16.001953 34.498047 16.001953 L 36.998047 16.001953 C 36.998047 14.894953 36.102047 14.001953 34.998047 14.001953 L 22.998047 14.001953 C 18.998047 14.001953 18.998047 10.001953 14.998047 10.001953 L 4.9980469 10.001953 z M 14.341797 24.001953 C 13.591797 24.001953 12.780922 24.654328 12.544922 25.361328 L 7.3945312 41.853516 L 15.998047 27 L 43.519531 27 L 40.570312 31 L 43.664062 31 L 47.839844 25.347656 C 47.937844 25.214656 47.996094 25.040516 47.996094 24.853516 C 47.996094 24.387516 47.612625 24.001953 47.140625 24.001953 L 14.341797 24.001953 z"/></svg>